<svg width="234" height="247" viewBox="0 0 234 247" fill="none" xmlns="http://www.w3.org/2000/svg">
<g clip-path="url(#clip0_1_179)">
<path d="M171.808 237.691L157.248 228.398L176.213 233.827C188.128 222.445 196.855 206.676 196.855 206.676C196.855 206.676 164.945 187.191 145.289 192.39C125.633 197.59 121.86 211.091 125.674 225.505C129.487 239.92 139.441 249.79 159.097 244.59C163.472 243.433 167.77 240.91 171.808 237.691Z" fill="#F2F2F2"/>
<path d="M155.8 225.4L154.831 225.656C143.554 228.578 134.264 229.003 127.091 226.913C126.986 226.884 126.884 226.849 126.779 226.821L126.923 226.336L127.067 225.872C134.842 228.239 144.674 227.204 154.511 224.658C154.829 224.579 155.151 224.499 155.471 224.409C159.626 223.295 163.765 221.928 167.744 220.439C168.053 220.327 168.366 220.208 168.678 220.089C173.92 218.097 178.855 215.919 183.11 213.901C183.411 213.759 183.711 213.613 184.006 213.469C191.193 210.023 196.286 207.1 197.411 206.443C197.549 206.365 197.625 206.32 197.642 206.31L197.892 206.731L197.899 206.735L198.15 207.161C198.132 207.171 197.88 207.325 197.407 207.594C195.644 208.609 190.84 211.307 184.385 214.415C184.093 214.554 183.793 214.7 183.492 214.841C180.041 216.483 176.16 218.223 172.04 219.878C171.006 220.295 169.982 220.694 168.969 221.075C168.658 221.198 168.346 221.317 168.037 221.429C163.736 223.039 159.657 224.363 155.8 225.4Z" fill="white"/>
<path d="M184.385 214.415C184.257 214.105 184.128 213.791 184.006 213.469C183.676 212.594 183.391 211.704 183.152 210.8C182.128 206.951 181.981 202.921 182.721 199.007C182.414 198.873 182.106 198.739 181.793 198.601C180.976 202.728 181.112 206.988 182.192 211.054C182.448 212.018 182.754 212.969 183.11 213.901C183.23 214.218 183.359 214.533 183.492 214.841C184.574 217.394 186.038 219.766 187.832 221.879C188.042 221.603 188.247 221.333 188.45 221.069C186.775 219.063 185.405 216.821 184.385 214.415V214.415Z" fill="white"/>
<path d="M168.97 221.075C168.863 220.749 168.766 220.42 168.678 220.089C168.647 219.99 168.619 219.884 168.592 219.784C167.488 215.611 167.41 211.234 168.363 207.025C169.317 202.816 171.274 198.9 174.068 195.61C173.734 195.493 173.401 195.376 173.063 195.265C170.255 198.666 168.298 202.687 167.354 206.995C166.409 211.303 166.505 215.774 167.633 220.038C167.668 220.172 167.704 220.306 167.744 220.439C167.838 220.774 167.935 221.102 168.037 221.429C169.654 226.481 172.692 230.96 176.787 234.331C177.03 234.103 177.272 233.874 177.513 233.641C173.503 230.373 170.534 226.006 168.97 221.075V221.075Z" fill="white"/>
<path d="M155.8 225.4C155.683 225.072 155.575 224.741 155.471 224.409C155.362 224.053 155.257 223.696 155.162 223.336C153.685 217.728 154.065 211.793 156.244 206.418C158.423 201.044 162.285 196.52 167.25 193.524C166.804 193.411 166.363 193.296 165.92 193.193C161.02 196.385 157.251 201.04 155.147 206.497C153.044 211.954 152.713 217.935 154.203 223.59C154.298 223.95 154.398 224.308 154.511 224.658C154.611 224.996 154.719 225.327 154.831 225.656C157.156 232.298 161.917 237.808 168.152 241.07C168.48 240.876 168.8 240.668 169.124 240.459C162.894 237.363 158.114 231.961 155.8 225.4Z" fill="white"/>
<path d="M136.535 245.067L64.5341 216.085C60.2195 214.342 56.7721 210.96 54.9484 206.679C53.1247 202.398 53.0736 197.568 54.8063 193.25L128.166 10.9978C129.908 6.68314 133.291 3.2358 137.572 1.41208C141.853 -0.411633 146.682 -0.462787 151.001 1.26985L223.002 30.2517C227.317 31.9941 230.764 35.3768 232.588 39.6578C234.412 43.9387 234.463 48.7682 232.73 53.0868L159.371 235.339C157.628 239.653 154.245 243.101 149.964 244.924C145.684 246.748 140.854 246.799 136.535 245.067Z" fill="#3F3D56"/>
<path d="M220.162 34.9818L212.148 31.7558C211.432 31.4686 210.632 31.477 209.922 31.7792C209.213 32.0814 208.652 32.6527 208.364 33.3677C207.774 34.8296 206.628 35.9976 205.177 36.6155C203.727 37.2333 202.091 37.2505 200.628 36.6632L161.431 20.8856C159.969 20.2955 158.801 19.1496 158.183 17.6992C157.565 16.2489 157.548 14.6127 158.135 13.1497C158.422 12.4341 158.414 11.6338 158.112 10.9245C157.809 10.2151 157.238 9.65458 156.523 9.36596L149.456 6.52145C146.181 5.20786 142.518 5.24692 139.271 6.63005C136.025 8.01318 133.459 10.6275 132.137 13.8996L59.2989 194.856C57.9853 198.131 58.0244 201.794 59.4075 205.041C60.7906 208.287 63.4049 210.853 66.677 212.175L137.383 240.635C140.658 241.949 144.321 241.91 147.568 240.527C150.814 239.144 153.38 236.529 154.702 233.257L227.54 52.301C228.854 49.0256 228.815 45.3628 227.432 42.1161C226.048 38.8694 223.434 36.3037 220.162 34.9818V34.9818Z" fill="white"/>
<path d="M192.745 28.1675L170.632 19.2665C170.422 19.1822 170.255 19.0181 170.166 18.8104C170.078 18.6026 170.076 18.3683 170.16 18.1588C170.244 17.9494 170.408 17.782 170.616 17.6935C170.824 17.605 171.058 17.6026 171.267 17.6869L193.381 26.5879C193.484 26.6297 193.579 26.6915 193.659 26.7697C193.739 26.848 193.802 26.9412 193.846 27.044C193.89 27.1469 193.913 27.2574 193.914 27.3692C193.915 27.481 193.894 27.5919 193.853 27.6956C193.811 27.7993 193.749 27.8938 193.671 27.9736C193.593 28.0535 193.499 28.1171 193.397 28.1609C193.294 28.2048 193.183 28.2279 193.071 28.229C192.96 28.2301 192.849 28.2092 192.745 28.1675V28.1675Z" fill="white"/>
<path d="M196.538 29.4575C196.914 29.4575 197.219 29.1526 197.219 28.7764C197.219 28.4003 196.914 28.0953 196.538 28.0953C196.162 28.0953 195.857 28.4003 195.857 28.7764C195.857 29.1526 196.162 29.4575 196.538 29.4575Z" fill="white"/>
<path d="M210.987 108.928C210.611 108.776 210.31 108.48 210.15 108.107C209.991 107.733 209.987 107.311 210.138 106.934L221.328 79.1345C221.48 78.7579 221.775 78.457 222.149 78.2981C222.523 78.1391 222.944 78.135 223.321 78.2866C223.698 78.4383 223.999 78.7333 224.158 79.1069C224.318 79.4804 224.322 79.902 224.171 80.2789L212.981 108.078C212.829 108.455 212.534 108.756 212.16 108.915C211.786 109.075 211.364 109.079 210.987 108.928V108.928Z" fill="#3F3D56"/>
<path d="M114.056 46.0506C113.68 45.8985 113.379 45.6032 113.22 45.2294C113.06 44.8556 113.056 44.4339 113.207 44.0569L115.75 37.7388C115.825 37.5518 115.936 37.3813 116.077 37.2373C116.218 37.0932 116.386 36.9784 116.571 36.8992C116.756 36.8201 116.955 36.7783 117.157 36.7762C117.358 36.7741 117.558 36.8117 117.745 36.887C117.932 36.9622 118.102 37.0735 118.246 37.2146C118.39 37.3557 118.504 37.5237 118.583 37.7092C118.662 37.8946 118.703 38.0937 118.705 38.2952C118.707 38.4966 118.669 38.6964 118.593 38.8832L116.05 45.2013C115.898 45.578 115.603 45.879 115.229 46.0382C114.855 46.1975 114.434 46.2019 114.056 46.0506V46.0506Z" fill="#3F3D56"/>
<path d="M109.352 57.7392C108.975 57.587 108.674 57.2917 108.515 56.9179C108.355 56.5441 108.351 56.1224 108.502 55.7454L111.045 49.4273C111.12 49.2402 111.231 49.0698 111.372 48.9257C111.513 48.7816 111.681 48.6667 111.866 48.5875C112.051 48.5084 112.251 48.4666 112.452 48.4644C112.653 48.4623 112.853 48.5 113.04 48.5752C113.227 48.6504 113.397 48.7618 113.541 48.9029C113.685 49.044 113.8 49.2121 113.879 49.3975C113.957 49.583 113.999 49.7821 114 49.9836C114.002 50.1851 113.964 50.3849 113.889 50.5717L111.345 56.8898C111.193 57.2665 110.898 57.5675 110.524 57.7268C110.15 57.886 109.729 57.8904 109.352 57.7392V57.7392Z" fill="#3F3D56"/>
<path d="M176.912 84.5716L146.325 72.2597C145.698 72.0057 145.197 71.5138 144.932 70.8917C144.667 70.2696 144.659 69.5678 144.91 68.9398L152.251 50.7023C152.505 50.0756 152.997 49.575 153.619 49.3099C154.241 49.0448 154.943 49.0368 155.571 49.2876L186.158 61.5994C186.784 61.8534 187.285 62.3452 187.55 62.9672C187.815 63.5892 187.823 64.2909 187.573 64.9189L180.232 83.1566C179.977 83.7832 179.486 84.2838 178.864 84.5489C178.242 84.8141 177.54 84.8222 176.912 84.5716ZM155.055 50.5706C154.767 50.4558 154.446 50.4595 154.16 50.5811C153.875 50.7026 153.65 50.932 153.534 51.2192L146.193 69.4555C146.078 69.7434 146.082 70.065 146.204 70.3502C146.325 70.6353 146.555 70.8607 146.842 70.9772L177.427 83.2882C177.715 83.4031 178.036 83.3994 178.322 83.2779C178.607 83.1563 178.833 82.9268 178.949 82.6394L186.289 64.4034C186.404 64.1155 186.4 63.7939 186.279 63.5088C186.157 63.2237 185.928 62.9983 185.641 62.8818L155.055 50.5706Z" fill="#3F3D56"/>
<path d="M177.093 72.9664L177.092 72.9657L153.48 63.4619C153.151 63.3284 152.871 63.0969 152.678 62.7986C152.485 62.5004 152.389 62.15 152.402 61.7951L152.848 50.7365C152.859 50.4609 152.936 50.192 153.073 49.9524C153.209 49.7128 153.401 49.5096 153.633 49.3596C153.864 49.2097 154.129 49.1175 154.403 49.0908C154.678 49.0642 154.954 49.1038 155.21 49.2063L186.458 61.7223C186.88 61.8916 187.218 62.2211 187.399 62.6389C187.579 63.0567 187.587 63.5288 187.42 63.9523L187.523 64.0549L186.543 65.0308L186.543 65.0305L178.952 72.5887C178.713 72.8269 178.41 72.9898 178.079 73.0569C177.749 73.1241 177.406 73.0926 177.093 72.9664V72.9664Z" fill="#3F3D56"/>
<path d="M159.363 73.7708L148.862 69.5439C148.603 69.4396 148.397 69.2369 148.288 68.9804C148.178 68.7239 148.176 68.4345 148.28 68.1758C148.384 67.9172 148.586 67.7104 148.843 67.6011C149.099 67.4918 149.389 67.4887 149.647 67.5927L160.149 71.8196C160.407 71.9238 160.614 72.1265 160.723 72.3831C160.832 72.6396 160.835 72.929 160.731 73.1877C160.627 73.4463 160.424 73.653 160.168 73.7624C159.911 73.8717 159.622 73.8747 159.363 73.7708V73.7708Z" fill="#3F3D56"/>
<path d="M165.865 70.2721C167.284 70.2721 168.435 69.1212 168.435 67.7015C168.435 66.2818 167.284 65.1309 165.865 65.1309C164.445 65.1309 163.294 66.2818 163.294 67.7015C163.294 69.1212 164.445 70.2721 165.865 70.2721Z" fill="white"/>
<path d="M131.302 197.883L100.715 185.571C100.088 185.317 99.5875 184.825 99.3224 184.203C99.0573 183.581 99.0494 182.879 99.3002 182.251L106.641 164.014C106.895 163.387 107.387 162.886 108.009 162.621C108.631 162.356 109.333 162.348 109.961 162.599L140.548 174.911C141.174 175.165 141.675 175.657 141.94 176.279C142.205 176.901 142.213 177.602 141.963 178.23L134.622 196.468C134.368 197.095 133.876 197.595 133.254 197.86C132.632 198.125 131.93 198.134 131.302 197.883V197.883ZM109.445 163.882C109.157 163.767 108.836 163.771 108.551 163.892C108.266 164.014 108.04 164.243 107.924 164.531L100.583 182.767C100.468 183.055 100.472 183.376 100.594 183.662C100.715 183.947 100.945 184.172 101.232 184.289L131.817 196.6C132.105 196.715 132.426 196.711 132.712 196.589C132.997 196.468 133.223 196.238 133.339 195.951L140.68 177.715C140.794 177.427 140.791 177.105 140.669 176.82C140.547 176.535 140.318 176.31 140.031 176.193L109.445 163.882Z" fill="#3F3D56"/>
<path d="M131.483 186.278L131.482 186.277L107.871 176.773C107.541 176.64 107.261 176.408 107.068 176.11C106.875 175.812 106.779 175.461 106.792 175.106L107.238 164.048C107.249 163.772 107.326 163.503 107.463 163.264C107.599 163.024 107.791 162.821 108.023 162.671C108.254 162.521 108.519 162.429 108.793 162.402C109.068 162.376 109.344 162.415 109.6 162.518L140.848 175.034C141.27 175.203 141.608 175.533 141.789 175.95C141.969 176.368 141.977 176.84 141.81 177.264L141.913 177.366L140.933 178.342L140.933 178.342L133.342 185.9C133.103 186.138 132.8 186.301 132.469 186.368C132.139 186.436 131.796 186.404 131.483 186.278Z" fill="#3F3D56"/>
<path d="M113.753 187.082L103.252 182.855C102.994 182.751 102.787 182.548 102.678 182.292C102.569 182.035 102.566 181.746 102.67 181.487C102.774 181.229 102.976 181.022 103.233 180.912C103.489 180.803 103.779 180.8 104.038 180.904L114.539 185.131C114.667 185.183 114.784 185.259 114.882 185.356C114.981 185.452 115.059 185.567 115.114 185.694C115.168 185.821 115.196 185.958 115.198 186.096C115.199 186.234 115.173 186.371 115.122 186.499C115.07 186.627 114.994 186.744 114.897 186.843C114.8 186.941 114.685 187.02 114.558 187.074C114.431 187.128 114.295 187.157 114.157 187.158C114.018 187.16 113.881 187.134 113.753 187.082V187.082Z" fill="#3F3D56"/>
<path d="M120.255 183.584C121.674 183.584 122.825 182.433 122.825 181.013C122.825 179.593 121.674 178.442 120.255 178.442C118.835 178.442 117.684 179.593 117.684 181.013C117.684 182.433 118.835 183.584 120.255 183.584Z" fill="white"/>
<path d="M143.419 151.695C158.948 151.695 171.536 139.107 171.536 123.579C171.536 108.05 158.948 95.4618 143.419 95.4618C127.891 95.4618 115.303 108.05 115.303 123.579C115.303 139.107 127.891 151.695 143.419 151.695Z" fill="#AA6F45"/>
<path d="M154.09 141.221L123.503 128.909C122.876 128.655 122.376 128.163 122.111 127.541C121.845 126.919 121.837 126.217 122.088 125.589L129.429 107.351C129.683 106.725 130.175 106.224 130.797 105.959C131.419 105.694 132.121 105.686 132.749 105.936L163.336 118.248C163.962 118.502 164.463 118.994 164.728 119.616C164.993 120.238 165.001 120.94 164.751 121.568L157.41 139.806C157.156 140.432 156.664 140.933 156.042 141.198C155.42 141.463 154.718 141.471 154.09 141.221V141.221ZM132.233 107.22C131.945 107.105 131.624 107.108 131.339 107.23C131.054 107.352 130.828 107.581 130.712 107.868L123.371 126.104C123.256 126.392 123.26 126.714 123.382 126.999C123.503 127.284 123.733 127.51 124.02 127.626L154.605 139.937C154.893 140.052 155.215 140.048 155.5 139.927C155.785 139.805 156.011 139.576 156.127 139.288L163.468 121.052C163.582 120.764 163.579 120.443 163.457 120.158C163.336 119.873 163.106 119.647 162.819 119.531L132.233 107.22Z" fill="#3F3D56"/>
<path d="M154.272 129.615L154.27 129.615L130.659 120.111C130.33 119.977 130.049 119.746 129.856 119.448C129.664 119.149 129.567 118.799 129.58 118.444L130.026 107.385C130.037 107.11 130.114 106.841 130.251 106.601C130.388 106.362 130.58 106.158 130.811 106.009C131.043 105.859 131.307 105.766 131.581 105.74C131.856 105.713 132.133 105.753 132.389 105.855L163.636 118.371C164.058 118.541 164.397 118.87 164.577 119.288C164.757 119.706 164.765 120.178 164.598 120.601L164.701 120.704L163.721 121.68L163.721 121.679L156.13 129.238C155.891 129.476 155.588 129.639 155.257 129.706C154.927 129.773 154.584 129.742 154.272 129.615V129.615Z" fill="#3F3D56"/>
<path d="M136.541 130.42L126.04 126.193C125.782 126.089 125.575 125.886 125.466 125.629C125.357 125.373 125.354 125.083 125.458 124.825C125.562 124.566 125.765 124.359 126.021 124.25C126.278 124.141 126.567 124.138 126.826 124.242L137.327 128.469C137.585 128.573 137.792 128.775 137.901 129.032C138.01 129.289 138.013 129.578 137.909 129.837C137.805 130.095 137.602 130.302 137.346 130.411C137.089 130.521 136.8 130.524 136.541 130.42V130.42Z" fill="#3F3D56"/>
<path d="M67.4392 144.16C67.4419 143.622 67.3267 143.09 67.1016 142.601C66.8765 142.113 66.5471 141.679 66.1364 141.332C65.7258 140.985 65.244 140.731 64.7249 140.59C64.2059 140.449 63.6622 140.424 63.1322 140.516L56.8014 129.076L53.6497 135.095L60.1447 145.036C60.3579 145.916 60.8865 146.687 61.6305 147.203C62.3744 147.72 63.2819 147.945 64.181 147.838C65.0802 147.73 65.9085 147.296 66.509 146.618C67.1094 145.94 67.4404 145.065 67.4392 144.16H67.4392Z" fill="#9E616A"/>
<path d="M63.349 97.9513L56.8387 97.4945C56.8387 97.4945 56.0368 97.3854 53.8314 100.883C51.626 104.38 44.0664 122.114 44.0664 122.114L57.3106 141.337L61.6122 137.055L53.9218 121.587L61.2931 111.234L63.349 97.9513Z" fill="#CACACA"/>
<path d="M135.12 118.733C134.684 118.9 134.216 118.968 133.751 118.935C133.285 118.901 132.832 118.765 132.425 118.538C132.017 118.31 131.664 117.996 131.391 117.617C131.118 117.238 130.931 116.804 130.844 116.345L119.614 114.692L123.544 110.293L133.606 112.537C134.386 112.442 135.174 112.636 135.821 113.083C136.468 113.53 136.928 114.199 137.115 114.963C137.302 115.726 137.202 116.532 136.834 117.227C136.466 117.922 135.857 118.458 135.12 118.733V118.733Z" fill="#9E616A"/>
<path d="M91.9526 241.746H96.7516L99.0345 223.236L91.952 223.236L91.9526 241.746Z" fill="#9E616A"/>
<path d="M90.7286 240.18L92.0794 240.18L97.3529 238.035L100.179 240.179H100.18C101.777 240.179 103.309 240.814 104.438 241.943C105.568 243.073 106.202 244.605 106.203 246.202V246.398L90.7289 246.398L90.7286 240.18Z" fill="#2F2E41"/>
<path d="M63.0048 241.746H67.8037L70.0866 223.236L63.0042 223.236L63.0048 241.746Z" fill="#9E616A"/>
<path d="M61.7808 240.18L63.1315 240.18L68.405 238.035L71.2315 240.179H71.2319C72.8292 240.179 74.361 240.814 75.4905 241.943C76.62 243.073 77.2545 244.605 77.2546 246.202V246.398L61.781 246.398L61.7808 240.18Z" fill="#2F2E41"/>
<path d="M64.8559 150.597L61.6841 169.716L62.7506 231.175H70.5571L82.5507 166.165L91.178 230.106L99.0272 229.766L102.944 165.225L99.4245 148.75L64.8559 150.597Z" fill="#2F2E41"/>
<path d="M93.5387 93.7387L85.1834 92.5077L83.407 87.8953L71.6358 87.879L68.9909 93.9016L56.9623 97.5332L66.928 131.767C66.928 131.767 61.4358 144.489 62.7866 144.544C64.1374 144.598 64.8028 146.53 63.8607 147.545C62.9185 148.56 61.0281 147.914 61.9733 149.456C62.5147 150.29 62.8774 151.228 63.0385 152.209C63.0385 152.209 102.895 160.718 100.687 149.746C100.413 148.382 97.0826 129.485 97.0826 129.485C97.0826 129.485 99.9825 126.276 98.7431 125.001C97.5037 123.726 98.1582 110.257 98.1582 110.257L93.5387 93.7387Z" fill="#CACACA"/>
<path d="M92.1711 95.2347L93.5387 93.7389L112.117 104.632L127.837 110.902L128.142 116.387L107.726 113.949L93.2766 106.884L92.1711 95.2347Z" fill="#CACACA"/>
<path d="M87.0055 74.6672C87.0055 75.9587 86.7511 77.2375 86.2569 78.4307C85.7626 79.6239 85.0382 80.7081 84.125 81.6213C83.2118 82.5345 82.1276 83.259 80.9344 83.7532C79.7412 84.2474 78.4624 84.5018 77.1709 84.5018C76.3964 84.5006 75.6246 84.4103 74.8707 84.2327C73.0745 83.8015 71.4359 82.8733 70.1425 81.5544C68.8492 80.2354 67.9533 78.5789 67.5574 76.7746C67.1616 74.9702 67.2817 73.0908 67.904 71.3516C68.5264 69.6123 69.6259 68.0834 71.0766 66.9398C72.5274 65.7962 74.2708 65.0841 76.1073 64.8851C77.9438 64.6861 79.7993 65.0082 81.4613 65.8145C83.1233 66.6208 84.5248 67.8787 85.5053 69.4443C86.4858 71.0099 87.0057 72.8199 87.0055 74.6672V74.6672Z" fill="#9E616A"/>
<path d="M79.805 82.6422L72.7415 84.0045C72.0834 84.1824 71.3939 84.211 70.7233 84.0882C69.6726 83.8116 68.9684 82.842 68.4309 81.8977C65.937 77.4753 65.1516 72.2919 66.2234 67.3292C66.4647 66.2337 66.9804 64.9786 68.0797 64.7555C68.3991 64.6906 68.7602 64.7162 69.013 64.5106C69.3853 64.2078 69.2628 63.5658 68.8972 63.2549C68.4998 62.981 68.0312 62.8287 67.5487 62.8166C67.8604 62.4502 68.2463 62.1539 68.6807 61.9473C69.1152 61.7406 69.5885 61.6283 70.0695 61.6176L68.1802 60.5678C69.0902 59.9363 70.3129 59.994 71.3865 60.2668C72.46 60.5396 73.4933 61.0017 74.5961 61.1051C75.9808 61.2349 77.3471 60.7899 78.7272 60.618C80.7864 60.3946 82.8664 60.7665 84.7207 61.6894C86.575 62.6124 88.1257 64.0477 89.1891 65.8252C89.5639 66.418 89.8013 67.0872 89.884 67.7836C89.922 68.1319 89.8783 68.4843 89.7562 68.8127C89.6342 69.1411 89.4372 69.4365 89.181 69.6754C88.4075 70.326 87.1891 70.2303 86.4398 70.9087C85.8623 71.4315 85.7185 72.2758 85.6859 73.0541C85.6533 73.8324 85.6903 74.6457 85.3567 75.3497C85.0232 76.0537 84.1527 76.5831 83.4567 76.2331C83.426 75.269 82.3147 74.5864 81.3708 74.7854C80.4269 74.9845 79.7297 75.8429 79.4582 76.7686C79.1866 77.6942 79.2672 78.6833 79.3855 79.6407C79.5038 80.598 79.6575 81.5667 79.5248 82.5222" fill="#2F2E41"/>
<path d="M141.945 127.206C143.365 127.206 144.516 126.055 144.516 124.636C144.516 123.216 143.365 122.065 141.945 122.065C140.526 122.065 139.375 123.216 139.375 124.636C139.375 126.055 140.526 127.206 141.945 127.206Z" fill="#AA6F45"/>
<path d="M197.603 246.861H0.362869C0.266825 246.86 0.174808 246.822 0.106993 246.754C0.039178 246.686 0.00109863 246.594 0.00109863 246.498C0.00109863 246.402 0.039178 246.31 0.106993 246.242C0.174808 246.174 0.266825 246.135 0.362869 246.135H197.603C197.699 246.135 197.792 246.173 197.86 246.241C197.928 246.309 197.966 246.402 197.966 246.498C197.966 246.594 197.928 246.686 197.86 246.754C197.792 246.822 197.699 246.861 197.603 246.861Z" fill="#CACACA"/>
</g>
<defs>
<clipPath id="clip0_1_179">
<rect width="234" height="246.861" fill="white"/>
</clipPath>
</defs>
</svg>
