<svg width="269" height="237" viewBox="0 0 269 237" fill="none" xmlns="http://www.w3.org/2000/svg">
<g clip-path="url(#clip0_1_120)">
<path d="M256.148 236.685L255.791 236.551C255.713 236.522 247.908 233.531 244.251 226.75C240.595 219.969 242.385 211.804 242.404 211.723L242.488 211.351L242.845 211.485C242.923 211.514 250.728 214.505 254.385 221.286C258.041 228.067 256.251 236.232 256.232 236.313L256.148 236.685ZM244.837 226.435C247.928 232.168 254.096 235.107 255.659 235.778C255.956 234.103 256.888 227.329 253.799 221.601C250.711 215.874 244.541 212.931 242.977 212.258C242.68 213.934 241.748 220.707 244.837 226.435Z" fill="#3F3D56"/>
<path d="M247.045 224.372C253.616 228.325 256.147 236.177 256.147 236.177C256.147 236.177 248.024 237.62 241.453 233.667C234.882 229.713 232.351 221.861 232.351 221.861C232.351 221.861 240.474 220.418 247.045 224.372Z" fill="#AA6F45"/>
<path d="M141.257 127.015C141.575 126.523 141.994 126.103 142.486 125.784C142.978 125.465 143.532 125.253 144.112 125.162C144.691 125.072 145.284 125.105 145.849 125.26C146.415 125.414 146.942 125.686 147.395 126.059C147.538 126.177 147.673 126.306 147.798 126.443L164.162 124.06L165.073 111.755C165.143 110.811 165.584 109.933 166.301 109.315C167.018 108.697 167.951 108.389 168.895 108.458C169.839 108.528 170.717 108.97 171.335 109.687C171.953 110.404 172.262 111.337 172.192 112.281C172.19 112.303 172.188 112.325 172.186 112.347L170.591 129.613L170.583 129.652C170.376 130.315 169.96 130.895 169.397 131.303C168.834 131.712 168.155 131.928 167.459 131.92L148.212 131.587C148.137 131.702 148.056 131.812 147.97 131.917C147.598 132.37 147.134 132.74 146.609 133.001C146.084 133.263 145.509 133.41 144.923 133.434C144.337 133.458 143.753 133.358 143.208 133.141C142.663 132.923 142.171 132.593 141.763 132.171C141.68 132.086 141.601 131.999 141.527 131.908C140.972 131.225 140.647 130.384 140.599 129.506C140.551 128.627 140.781 127.755 141.257 127.015V127.015Z" fill="#7A5858"/>
<path d="M174.249 231.934L169.582 231.934L167.361 213.932L174.25 213.932L174.249 231.934Z" fill="#7A5858"/>
<path d="M175.439 236.458L160.39 236.458V236.268C160.39 234.714 161.007 233.224 162.106 232.126C163.204 231.027 164.694 230.41 166.247 230.41H166.248L175.439 230.41L175.439 236.458Z" fill="#2F2E41"/>
<path d="M206.862 227.703L202.445 229.209L194.531 212.888L201.051 210.664L206.862 227.703Z" fill="#7A5858"/>
<path d="M209.45 231.6L195.206 236.459L195.145 236.278C194.643 234.808 194.746 233.199 195.431 231.804C196.116 230.41 197.327 229.345 198.797 228.843L198.798 228.843L207.497 225.876L209.45 231.6Z" fill="#2F2E41"/>
<path d="M179.388 74.5292C179.388 74.5292 174.743 72.995 171.757 79.1317C168.77 85.2684 164.125 92.0187 164.125 92.0187L166.779 92.6324C166.779 92.6324 167.443 88.3367 169.102 87.7231L168.438 93.2461C168.438 93.2461 188.347 99.6896 197.306 92.6324L196.975 90.4846C196.975 90.4846 198.302 90.7914 198.302 92.6324L199.297 91.7119C199.297 91.7119 198.302 89.8709 195.316 87.4162C193.355 85.8051 192.682 82.7399 192.45 80.8235C192.267 79.201 191.571 77.6792 190.464 76.4789C188.479 74.352 184.863 72.0915 179.388 74.5292Z" fill="#2F2E41"/>
<path d="M181.101 95.9697C185.787 95.9697 189.585 92.1711 189.585 87.4851C189.585 82.7992 185.787 79.0005 181.101 79.0005C176.415 79.0005 172.616 82.7992 172.616 87.4851C172.616 92.1711 176.415 95.9697 181.101 95.9697Z" fill="#7A5858"/>
<path d="M169.788 102.956L168.245 102.442C168.245 102.442 165.16 103.728 165.16 106.042C165.16 108.356 164.646 117.612 164.646 117.612L171.588 118.383L169.788 102.956Z" fill="#CBCBCB"/>
<path d="M197.399 153.529C196.759 152.812 196.398 151.889 196.381 150.929C196.364 149.968 196.693 149.033 197.307 148.294L192.976 112.026C192.934 111.17 193.232 110.333 193.807 109.698C194.381 109.063 195.184 108.681 196.039 108.637C196.894 108.593 197.732 108.89 198.368 109.463C199.004 110.036 199.388 110.838 199.433 111.693C199.434 111.705 199.434 111.717 199.435 111.728L203.309 148.035C203.45 148.176 203.579 148.328 203.696 148.489C204.007 148.918 204.23 149.405 204.353 149.921C204.476 150.437 204.495 150.972 204.411 151.496C204.327 152.019 204.141 152.521 203.863 152.973C203.585 153.424 203.22 153.816 202.791 154.127C202.746 154.159 202.701 154.191 202.655 154.221C202.157 154.55 201.593 154.765 201.003 154.851C200.412 154.936 199.81 154.89 199.24 154.715C198.528 154.499 197.89 154.088 197.399 153.529Z" fill="#7A5858"/>
<path d="M193.432 117.612L200.374 116.84C200.374 116.84 199.86 107.584 199.86 105.27C199.86 102.956 196.775 101.671 196.775 101.671L195.232 102.185L193.432 117.612Z" fill="#CBCBCB"/>
<path d="M170.816 130.454C170.816 130.454 164.903 141.266 164.903 154.378C164.903 167.491 164.389 227.655 164.389 227.655C164.389 227.655 172.102 231.254 176.73 226.883L180.844 160.292L197.041 225.598C197.041 225.598 204.755 227.14 208.354 224.569L201.412 179.061C201.412 179.061 198.584 136.381 190.871 133.295C183.158 130.21 170.816 130.454 170.816 130.454Z" fill="#2F2E41"/>
<path d="M171.932 87.5389C174.936 85.3652 177.367 82.8614 178.976 79.8831C178.976 79.8831 184.488 86.0078 187.856 86.314C191.225 86.6202 188.163 78.9644 188.163 78.9644L182.038 77.4332L176.22 78.0457L171.626 81.108L171.932 87.5389Z" fill="#2F2E41"/>
<path d="M189.585 100.128C189.585 100.128 189.83 99.9967 175.188 100.53L169.06 102.218L168.245 102.442C168.245 102.442 169.016 117.869 171.073 120.697C173.13 123.525 172.616 125.068 172.102 125.325C171.588 125.582 170.302 125.068 171.073 126.353C171.845 127.639 172.873 126.868 171.845 127.639C170.816 128.41 170.302 131.238 170.302 131.238L192.928 134.324C192.928 134.324 193.699 124.296 195.756 119.154C197.813 114.012 198.327 111.955 198.327 111.955L196.784 101.671L189.585 100.128Z" fill="#CBCBCB"/>
<path d="M146.569 56.2723H145.268V20.6292C145.268 15.158 143.095 9.91091 139.226 6.04218C135.357 2.17345 130.11 8.81938e-06 124.639 0L49.1242 0C43.653 -1.49928e-05 38.4059 2.1734 34.5371 6.04212C30.6684 9.91084 28.495 15.158 28.4949 20.6292V216.17C28.4949 221.641 30.6684 226.888 34.5371 230.757C38.4058 234.626 43.6529 236.799 49.1241 236.799H124.639C127.348 236.799 130.03 236.265 132.533 235.229C135.036 234.192 137.31 232.673 139.226 230.757C141.142 228.841 142.661 226.567 143.698 224.064C144.735 221.562 145.268 218.879 145.268 216.17V216.17V81.6436H146.569L146.569 56.2723Z" fill="#3F3D56"/>
<path d="M140.878 20.7742V216.027C140.879 218.049 140.483 220.05 139.711 221.919C138.939 223.787 137.807 225.485 136.379 226.915C134.951 228.346 133.255 229.481 131.388 230.256C129.521 231.032 127.52 231.432 125.499 231.433H49.5942C45.511 231.436 41.594 229.817 38.7048 226.932C35.8156 224.047 34.1908 220.132 34.1879 216.049V20.7741C34.1865 18.7524 34.5833 16.7502 35.3557 14.8818C36.1281 13.0134 37.2609 11.3154 38.6895 9.8848C40.118 8.4542 41.8144 7.31899 43.6817 6.54398C45.549 5.76898 47.5507 5.36935 49.5724 5.36793H58.7987C58.3454 6.47925 58.1723 7.68501 58.2949 8.87897C58.4174 10.0729 58.8316 11.2184 59.5012 12.2145C60.1707 13.2106 61.075 14.0268 62.1343 14.5911C63.1936 15.1553 64.3754 15.4504 65.5757 15.4503H108.838C110.038 15.4504 111.22 15.1553 112.279 14.5911C113.339 14.0268 114.243 13.2106 114.913 12.2145C115.582 11.2184 115.996 10.0729 116.119 8.87897C116.241 7.68501 116.068 6.47925 115.615 5.36793H125.471C129.554 5.36427 133.47 6.98245 136.359 9.86649C139.249 12.7505 140.874 16.6642 140.878 20.7465V20.7742L140.878 20.7742Z" fill="white"/>
<path d="M140.878 49.6613V43.0106H130.812V6.31901C129.102 5.68763 127.294 5.36558 125.471 5.36793H124.161V43.0106H89.2453V15.4503H82.5946V43.0106H53.3318V5.36797H49.5942C48.6166 5.36644 47.6411 5.45887 46.6811 5.64397V43.0106H34.188V49.6613H46.6811V65.0444L34.1881 72.257V79.9385L46.6811 72.7259V118.495H34.188V125.146H46.6811V191.32H34.188V197.971H46.6811V231.157C47.6411 231.342 48.6166 231.435 49.5942 231.433H53.3318V197.971H82.5946V231.433H89.2453V197.971H124.161V231.433H125.471C127.294 231.436 129.102 231.114 130.812 230.482V197.971H140.878V191.32H130.812V162.39H140.788V155.739H130.812V125.146H140.878V118.495H130.812V77.9265H140.878V71.2759H130.812V49.6613L140.878 49.6613ZM73.3272 49.6613L73.3271 49.6614L53.3319 61.2069L53.3318 61.207V49.6613H73.3272ZM53.3318 68.8852L53.3319 68.8851L82.5946 51.9892V118.495H53.3318V68.8852ZM53.3318 191.32V125.146H82.5946V191.32H53.3318ZM124.161 191.32H89.2453V162.39H124.161V191.32ZM124.161 155.739H89.2453V125.146H124.161V155.739ZM124.161 118.495H89.2453V77.9265H124.161V118.495ZM124.161 71.2759H89.2453V49.6613H124.161V71.2759Z" fill="#E5E5E5"/>
<path d="M146.441 71.3989C146.441 92.519 108.2 139.568 108.2 139.568C108.2 139.568 69.9584 92.519 69.9584 71.3989C69.9584 61.2567 73.9874 51.5299 81.159 44.3583C88.3306 37.1867 98.0575 33.1577 108.2 33.1577C118.342 33.1577 128.069 37.1867 135.24 44.3583C142.412 51.5299 146.441 61.2567 146.441 71.3989V71.3989Z" fill="#AA6F45"/>
<path d="M130.812 69.7362C130.812 74.2085 129.486 78.5803 127.001 82.2989C124.517 86.0174 120.985 88.9157 116.853 90.6272C112.722 92.3386 108.175 92.7864 103.789 91.9139C99.4023 91.0414 95.3732 88.8878 92.2109 85.7255C89.0485 82.5631 86.8949 78.534 86.0224 74.1476C85.1499 69.7613 85.5977 65.2147 87.3091 61.0829C89.0206 56.9511 91.9189 53.4195 95.6374 50.9349C99.356 48.4502 103.728 47.124 108.2 47.124C111.168 47.1227 114.108 47.7059 116.85 48.8405C119.593 49.9751 122.085 51.6388 124.185 53.7366C126.285 55.8344 127.951 58.3252 129.088 61.0669C130.225 63.8086 130.811 66.7473 130.812 69.7155V69.7362Z" fill="white"/>
<path d="M108.121 78.6624C112.774 78.6624 116.546 74.8908 116.546 70.2382C116.546 65.5857 112.774 61.8141 108.121 61.8141C103.469 61.8141 99.6973 65.5857 99.6973 70.2382C99.6973 74.8908 103.469 78.6624 108.121 78.6624Z" fill="#AA6F45"/>
<path d="M120.347 89.4787C116.716 91.7879 112.501 93.0141 108.198 93.0135C103.894 93.0129 99.6802 91.7856 96.0493 89.4753C96.8045 86.8357 98.3988 84.5139 100.591 82.8611C102.783 81.2083 105.454 80.3144 108.2 80.3148C110.945 80.3152 113.616 81.2098 115.808 82.8632C117.999 84.5166 119.593 86.8389 120.347 89.4787V89.4787Z" fill="#AA6F45"/>
<path d="M108.2 167.168C113.893 167.168 118.508 162.553 118.508 156.86C118.508 151.166 113.893 146.551 108.2 146.551C102.506 146.551 97.8911 151.166 97.8911 156.86C97.8911 162.553 102.506 167.168 108.2 167.168Z" fill="#AA6F45"/>
<path d="M267.689 237H0.332532C0.244339 237 0.159758 236.965 0.0973965 236.903C0.0350346 236.84 0 236.756 0 236.667C0 236.579 0.0350346 236.495 0.0973965 236.432C0.159758 236.37 0.244339 236.335 0.332532 236.335H267.689C267.777 236.335 267.861 236.37 267.924 236.432C267.986 236.495 268.021 236.579 268.021 236.667C268.021 236.756 267.986 236.84 267.924 236.903C267.861 236.965 267.777 237 267.689 237Z" fill="#CBCBCB"/>
</g>
<defs>
<clipPath id="clip0_1_120">
<rect width="268.021" height="237" fill="white"/>
</clipPath>
</defs>
</svg>
