<svg width="269" height="237" viewBox="0 0 269 237" fill="none" xmlns="http://www.w3.org/2000/svg">
<g clip-path="url(#clip0_174_165)">
<path d="M82.7655 173.857H49.1929C48.3465 173.857 47.6578 173.234 47.6578 172.467C47.6578 171.701 48.3465 171.077 49.1929 171.077H82.7655C83.6119 171.077 84.3003 171.701 84.3003 172.467C84.3003 173.234 83.6119 173.857 82.7655 173.857H82.7655Z" fill="#0C0A28"/>
<path d="M22.8063 181.299C22.8063 181.548 23.0278 181.749 23.3035 181.749H108.655C108.93 181.749 109.152 181.548 109.152 181.299C109.152 181.049 108.93 180.848 108.655 180.848H23.3035C23.0278 180.848 22.8063 181.049 22.8063 181.299Z" fill="#3F3D56"/>
<path d="M202.884 90.58C217.882 90.58 230.04 79.5693 230.04 65.9868C230.04 52.4043 217.882 41.3936 202.884 41.3936C187.885 41.3936 175.727 52.4043 175.727 65.9868C175.727 79.5693 187.885 90.58 202.884 90.58Z" fill="#AA6F45"/>
<path d="M0 212.375C0 212.625 0.221443 212.826 0.4972 212.826H218.707C218.982 212.826 219.204 212.625 219.204 212.375C219.204 212.126 218.982 211.925 218.707 211.925H0.4972C0.221443 211.925 0 212.126 0 212.375Z" fill="#3F3D56"/>
<path d="M3.1562 181.97L2.45817 181.277L70.5852 124.979L95.1301 134.943L121.635 93.7805L143.411 84.2747L163.588 114.728C174.481 89.1891 201.799 62.4698 234.533 35.3611L235.339 35.9516C204.637 62.5707 178.369 89.3107 163.461 116.36L144.799 88.1095C143.917 86.7748 142.064 86.2593 140.507 86.9154L140.507 86.9155C128.604 91.9312 118.676 100.118 112.05 110.382L95.4467 136.1L91.6567 134.561C78.9816 129.416 64.1433 131.572 53.8827 140.051L3.1562 181.97Z" fill="#3F3D56"/>
<path d="M236.069 40.4866L235.035 40.5516L233.366 37.276L229.629 36.5886L229.484 35.6589L235.643 34.8662L236.069 40.4866Z" fill="#3F3D56"/>
<path d="M129.802 60.5297L133.464 47.7801L147.731 47.1586L151.999 64.7335L129.802 60.5297Z" fill="#755132"/>
<path opacity="0.1" d="M129.802 60.5297L133.464 47.7801L147.731 47.1586L151.999 64.7335L129.802 60.5297Z" fill="black"/>
<path d="M139.19 54.9151C148.7 54.9151 156.409 47.9332 156.409 39.3206C156.409 30.708 148.7 23.7261 139.19 23.7261C129.679 23.7261 121.97 30.708 121.97 39.3206C121.97 47.9332 129.679 54.9151 139.19 54.9151Z" fill="#755132"/>
<path d="M148.69 42.6215H148.69C148.69 42.6215 142.149 30.8839 134.484 31.5615C126.82 32.2392 122.782 33.0634 122.782 33.0634C122.782 33.0634 120.507 23.9215 131.218 20.4052C131.218 20.4052 117.599 8.24707 133.814 2.28298C150.029 -3.6811 159.102 3.92533 159.102 3.92533C159.102 3.92533 171.105 14.7764 155.988 22.8866C155.988 22.8866 167.213 36.56 153.623 47.8299C153.623 47.8299 156.662 38.71 153.491 40.3919C150.319 42.0738 148.69 42.6215 148.69 42.6215V42.6215L148.69 42.6215L148.69 42.6215Z" fill="black"/>
<path d="M120.19 125.014L117.9 127.002L101.352 159.134L99.5407 212.282H127.343L140.385 185.963L149.172 212.028H174.17L179.965 164.711L164.388 131.247L120.19 125.014Z" fill="black"/>
<path d="M148.991 59.2341H130.424L110.228 69.0764L114.937 88.105C114.937 88.105 113.851 99.5877 116.386 108.118C118.922 116.648 117.836 127.802 117.836 127.802L164.388 131.247L165.837 92.534L165.112 66.6158L148.991 59.2341V59.2341Z" fill="#656564"/>
<path d="M113.307 69.2404C113.307 69.2404 102.077 69.5685 100.265 76.1301C98.4539 82.6917 97.0048 116.484 97.0048 116.484C97.0048 116.484 98.0916 136.535 110.228 127.002C122.364 117.468 121.277 88.5971 121.277 88.5971L113.307 69.2404Z" fill="#656564"/>
<path d="M86.9527 67.5641H80.7222C79.9637 67.5641 79.3466 67.1327 79.3466 66.6024V42.3082C79.3466 41.7779 79.9637 41.3465 80.7222 41.3465H86.9527C87.7113 41.3465 88.3284 41.7778 88.3284 42.3082V66.6024C88.3284 67.1327 87.7113 67.5641 86.9527 67.5641V67.5641V67.5641Z" fill="#0C0A28"/>
<path d="M66.3533 53.2473C65.7405 53.2473 65.2418 53.5959 65.2418 54.0243V66.5752C65.2418 67.0037 65.7405 67.3523 66.3533 67.3523H72.5838C73.1966 67.3523 73.6953 67.0037 73.6953 66.5752V54.0243C73.6953 53.5959 73.1966 53.2473 72.5838 53.2473H66.3533Z" fill="#0C0A28"/>
<path d="M101.322 67.5641H95.0912C94.3326 67.5641 93.7155 67.1327 93.7155 66.6024V26.7885C93.7155 26.2582 94.3326 25.8268 95.0912 25.8268H101.322C102.08 25.8268 102.697 26.2582 102.697 26.7885V66.6024C102.697 67.1327 102.08 67.5641 101.322 67.5641V67.5641V67.5641Z" fill="#0C0A28"/>
<path d="M178.998 176.315C182.226 176.035 184.448 172.086 183.963 167.492C183.796 165.654 183.147 163.879 182.068 162.316L181.446 157.116L181.541 157.09L183.105 132.437C183.468 126.705 180.963 121.073 176.135 117.351C173.264 115.136 170.2 114.015 168.23 116.813C164.962 121.455 169.196 140.591 171.976 151.471L173.054 163.097C172.322 164.818 172.055 166.673 172.277 168.506C172.762 173.099 175.771 176.595 178.998 176.315V176.315Z" fill="#755132"/>
<path d="M161.127 67.272C161.127 67.272 170.546 63.9912 174.894 73.8336C179.241 83.6759 183.95 132.231 183.95 132.231L161.852 128.623L161.127 67.272V67.272V67.272Z" fill="#656564"/>
<path d="M31.7907 62.4579H19.1076C18.2613 62.4579 17.5726 61.8342 17.5726 61.0677C17.5726 60.3012 18.2613 59.6778 19.1076 59.6778H31.7907C32.637 59.6778 33.3254 60.3012 33.3254 61.0677C33.3254 61.8342 32.637 62.4579 31.7907 62.4579Z" fill="#656564"/>
<path d="M31.7907 42.7533H19.1076C18.2613 42.7533 17.5726 42.1296 17.5726 41.3631C17.5726 40.5966 18.2613 39.9732 19.1076 39.9732H31.7907C32.637 39.9732 33.3254 40.5966 33.3254 41.3631C33.3254 42.1296 32.637 42.7533 31.7907 42.7533Z" fill="#656564"/>
<path d="M31.7907 28.5433H19.1076C18.2613 28.5433 17.5726 27.9196 17.5726 27.1531C17.5726 26.3866 18.2613 25.7632 19.1076 25.7632H31.7907C32.637 25.7632 33.3254 26.3866 33.3254 27.1531C33.3254 27.9196 32.637 28.5433 31.7907 28.5433Z" fill="#656564"/>
<path d="M17.0638 67.6328C17.0638 67.8826 17.2853 68.0831 17.561 68.0831H102.912C103.188 68.0831 103.409 67.8826 103.409 67.6328C103.409 67.3831 103.188 67.1826 102.912 67.1826H17.561C17.2853 67.1826 17.0638 67.3831 17.0638 67.6328Z" fill="#3F3D56"/>
<path d="M181.675 184.167C181.675 184.417 181.896 184.617 182.172 184.617H267.523C267.799 184.617 268.02 184.417 268.02 184.167C268.02 183.917 267.799 183.717 267.523 183.717H182.172C181.896 183.717 181.675 183.917 181.675 184.167Z" fill="#3F3D56"/>
<path d="M156.607 220.868C156.607 221.117 156.828 221.318 157.104 221.318H242.455C242.731 221.318 242.952 221.117 242.952 220.868C242.952 220.618 242.731 220.417 242.455 220.417H157.104C156.828 220.417 156.607 220.618 156.607 220.868Z" fill="#3F3D56"/>
<path d="M99.2123 65.3566C95.985 65.6364 93.7626 69.5858 94.2482 74.1799C94.4143 76.0175 95.064 77.7923 96.1428 79.3558L96.7649 84.5553L96.6696 84.5811L95.1061 109.234C94.7426 114.966 97.2482 120.599 102.075 124.321C104.947 126.535 108.011 127.656 109.98 124.859C113.249 120.216 109.015 101.08 106.235 90.2005L105.157 78.5744C105.889 76.8534 106.156 74.9987 105.934 73.1654C105.449 68.5729 102.44 65.0768 99.2123 65.3566H99.2123V65.3566Z" fill="#755132"/>
</g>
<defs>
<clipPath id="clip0_174_165">
<rect width="268.02" height="237" fill="white"/>
</clipPath>
</defs>
</svg>
