<svg width="222" height="222" viewBox="0 0 222 222" fill="none" xmlns="http://www.w3.org/2000/svg">
<path d="M111 215.062C168.472 215.062 215.062 168.472 215.062 111C215.062 53.5279 168.472 6.9375 111 6.9375C53.5279 6.9375 6.9375 53.5279 6.9375 111C6.9375 168.472 53.5279 215.062 111 215.062Z" fill="#96D7FF"/>
<path d="M16.3031 117.937C16.3207 99.1673 21.4148 80.7514 31.0458 64.6404C40.6768 48.5294 54.486 35.3233 71.0108 26.421C87.5355 17.5187 106.16 13.2516 124.913 14.0718C143.665 14.892 161.846 20.7689 177.531 31.08C166.727 21.5791 154.07 14.4217 140.36 10.0599C126.65 5.698 112.184 4.22645 97.8768 5.73814C83.5692 7.24982 69.7306 11.7119 57.2348 18.8426C44.739 25.9732 33.8575 35.6175 25.2776 47.1665C16.6978 58.7154 10.6059 71.9179 7.3867 85.9404C4.16752 99.9628 3.891 114.5 6.57461 128.635C9.25821 142.77 14.8436 156.194 22.9781 168.061C31.1126 179.928 41.6194 189.979 53.835 197.58C42.1383 187.855 32.716 175.684 26.2314 161.924C19.7469 148.163 16.3579 133.149 16.3031 117.937Z" fill="#86C3EF"/>
<path d="M111 42.2495C97.5741 42.2679 84.7033 47.6094 75.2097 57.103C65.7162 66.5966 60.3746 79.4673 60.3563 92.8933V197.65C60.3601 198.931 60.7187 200.186 61.3922 201.275C62.0657 202.365 63.0278 203.247 64.1719 203.824C78.6758 211.213 94.7224 215.065 111 215.065C127.278 215.065 143.324 211.213 157.828 203.824C158.972 203.247 159.934 202.365 160.608 201.275C161.281 200.186 161.64 198.931 161.644 197.65V92.8933C161.625 79.4673 156.284 66.5966 146.79 57.103C137.297 47.6094 124.426 42.2679 111 42.2495Z" fill="#BF9E99"/>
<path d="M111 215.063C136.939 215.069 161.929 205.311 180.999 187.729C181.099 187.202 181.099 186.66 180.999 186.133C177.932 176.966 172.063 168.994 164.221 163.343C156.379 157.692 146.96 154.646 137.293 154.637H85.2619C75.6073 154.661 66.2035 157.713 58.3752 163.363C50.5468 169.014 44.6883 176.978 41.625 186.133C41.5255 186.66 41.5255 187.202 41.625 187.729C60.5367 205.165 85.2771 214.913 111 215.063Z" fill="#FF9797"/>
<path d="M45.1631 190.018C48.2483 180.863 54.122 172.902 61.9602 167.254C69.7984 161.605 79.208 158.552 88.8694 158.522H140.97C152.182 158.568 162.99 162.713 171.356 170.177C167.049 165.315 161.763 161.418 155.845 158.74C149.928 156.062 143.511 154.664 137.016 154.637H84.9844C75.3773 154.719 66.0355 157.797 58.2624 163.444C50.4894 169.09 44.673 177.022 41.625 186.133C41.5255 186.66 41.5255 187.202 41.625 187.729C42.8737 188.908 44.2612 189.949 45.5794 191.059C45.4059 190.727 45.2664 190.378 45.1631 190.018Z" fill="#E47979"/>
<path d="M129.731 109.821H92.2687C90.4288 109.821 88.6642 110.551 87.3632 111.852C86.0622 113.154 85.3312 114.918 85.3312 116.758V161.644C85.3371 162.786 85.6252 163.91 86.1698 164.914C86.7145 165.919 87.4988 166.773 88.4531 167.402L107.184 179.889C108.317 180.635 109.644 181.033 111 181.033C112.356 181.033 113.683 180.635 114.816 179.889L133.547 167.402C134.501 166.773 135.286 165.919 135.83 164.914C136.375 163.91 136.663 162.786 136.669 161.644V116.758C136.669 114.918 135.938 113.154 134.637 111.852C133.336 110.551 131.571 109.821 129.731 109.821Z" fill="#ECC5B4"/>
<path d="M149.156 88.592H72.8438C67.3239 88.592 62.0302 90.7848 58.1271 94.6879C54.224 98.591 52.0312 103.885 52.0312 109.405C52.0312 114.924 54.224 120.218 58.1271 124.121C62.0302 128.024 67.3239 130.217 72.8438 130.217H149.156C154.676 130.217 159.97 128.024 163.873 124.121C167.776 120.218 169.969 114.924 169.969 109.405C169.969 103.885 167.776 98.591 163.873 94.6879C159.97 90.7848 154.676 88.592 149.156 88.592Z" fill="#ECC5B4"/>
<path d="M128.066 62.4375H93.9337C87.5123 62.4375 81.354 64.9884 76.8134 69.529C72.2727 74.0696 69.7219 80.228 69.7219 86.6494V109.959C69.7219 120.907 74.0708 131.406 81.8119 139.147C89.5531 146.889 100.052 151.237 111 151.237C121.948 151.237 132.447 146.889 140.188 139.147C147.929 131.406 152.278 120.907 152.278 109.959V86.4412C152.223 80.056 149.648 73.9509 145.113 69.4553C140.579 64.9596 134.452 62.4373 128.066 62.4375Z" fill="#F4DAB7"/>
<path d="M160.95 87.8287H161.366C160.575 79.7553 157.85 71.9914 153.422 65.194C148.995 58.3965 142.996 52.7656 135.931 48.7775C128.867 44.7895 120.946 42.5618 112.839 42.2828C104.732 42.0039 96.6765 43.6819 89.355 47.175C88.8306 48.946 88.9788 50.8484 89.7712 52.5168C94.476 62.314 101.472 70.8332 110.167 77.3531C120.744 85.2609 133.591 89.5432 146.797 89.5631C151.566 89.5273 156.314 88.9454 160.95 87.8287Z" fill="#D6B5B0"/>
<path d="M131.813 46.8976C124.114 43.4077 115.664 41.9028 107.234 42.5205C98.8048 43.1382 90.6643 45.8588 83.5571 50.4337C76.4499 55.0085 70.6026 61.2917 66.5496 68.7089C62.4967 76.1262 60.3674 84.4409 60.3563 92.8932V95.5988C63.0883 96.0161 65.8482 96.2249 68.6119 96.2232C77.8303 96.2129 86.9385 94.2187 95.3179 90.3762C103.697 86.5336 111.152 80.9327 117.174 73.9538C123.899 66.1674 128.889 57.0389 131.813 47.1751V46.8976Z" fill="#D6B5B0"/>
</svg>
