<svg width="300" height="226" viewBox="0 0 300 226" fill="none" xmlns="http://www.w3.org/2000/svg">
<g clip-path="url(#clip0_1_247)">
<path d="M110.979 60.1343C123.902 51.7951 141.699 55.0352 154.289 63.8711C158.397 66.794 162.171 70.1611 165.541 73.9112C167.507 76.067 169.37 78.3301 171.152 80.6712C171.591 81.2456 172.028 81.8257 172.457 82.4115C172.75 82.8076 173.041 83.2064 173.329 83.608C176.944 88.6321 180.258 93.9176 183.502 99.155C191.6 112.229 199.909 125.693 212.248 134.872C214.79 136.763 218.337 138.465 220.941 136.66C223.201 135.092 223.298 131.795 222.784 129.094C220.871 119.084 213.973 110.788 206.645 103.707C199.317 96.6263 191.205 90.1342 185.668 81.5777C180.131 73.0212 177.601 61.5981 182.451 52.6366C186.631 44.914 195.623 40.5822 204.401 40.3805C213.179 40.1807 221.707 43.5925 229.133 48.2775C236.558 52.9644 243.087 58.9114 249.902 64.4487C254.009 67.7895 259.745 71.1043 264.221 68.2758C268.003 65.8855 268.297 60.1472 266.044 56.2836C263.79 52.42 259.768 49.9919 255.913 47.7275C243.941 40.6947 231.969 33.6625 219.997 26.6309C216.325 24.4755 212.572 22.2512 209.86 18.9644C207.148 15.6797 205.643 11.063 207.138 7.0741C208.612 3.14319 212.731 0.647103 216.898 0.126188C221.062 -0.393525 225.262 0.761127 229.158 2.32515C243.756 8.18771 278.129 46.5414 287.29 53.0988C293.177 57.3103 299.361 62.6421 299.957 69.8557C300.698 78.8362 291.763 86.2889 282.794 87.16C273.826 88.0338 265.134 84.1343 257.121 80.0117C249.108 75.8891 240.93 71.3437 231.936 70.7714C222.942 70.1992 212.851 75.0069 210.719 83.7626C208.865 91.3813 213.579 99.2429 219.718 104.118C224.524 107.934 230.165 110.476 235.613 113.334C237.126 114.125 238.623 114.944 240.083 115.818C243.821 118.062 247.315 120.689 250.509 123.656C253.861 126.767 256.871 130.228 259.486 133.98C261.572 136.97 263.393 140.137 264.926 143.444C265.16 143.95 265.387 144.462 265.607 144.981C265.815 145.478 266.018 145.981 266.209 146.489C268.71 153.076 269.684 160.458 266.489 166.607C263.303 172.74 256.401 176.371 249.509 176.875C245.523 177.113 241.528 176.585 237.74 175.32C234.954 174.415 232.257 173.256 229.684 171.858C217.752 165.453 208.306 155.298 199.678 144.857C191.053 134.418 182.932 123.425 172.692 114.564C162.453 105.7 149.622 98.9983 136.079 99.1001C122.537 99.1999 108.576 107.451 104.73 120.436C99.1239 110.775 95.3328 99.7628 95.8333 88.6058C96.3339 77.4489 101.596 66.1914 110.979 60.1343Z" fill="#3F3D56"/>
<path d="M163.519 96.2295C164.341 96.2295 165.007 95.5633 165.007 94.7416C165.007 93.9199 164.341 93.2538 163.519 93.2538C162.697 93.2538 162.031 93.9199 162.031 94.7416C162.031 95.5633 162.697 96.2295 163.519 96.2295Z" fill="#AA6F45"/>
<path d="M107.448 98.3568C108.719 98.3568 109.749 97.3269 109.749 96.0564C109.749 94.786 108.719 93.7561 107.448 93.7561C106.178 93.7561 105.148 94.786 105.148 96.0564C105.148 97.3269 106.178 98.3568 107.448 98.3568Z" fill="#FF6584"/>
<path d="M273.712 78.003C274.181 78.003 274.561 77.6225 274.561 77.153C274.561 76.6836 274.181 76.3031 273.712 76.3031C273.242 76.3031 272.862 76.6836 272.862 77.153C272.862 77.6225 273.242 78.003 273.712 78.003Z" fill="#FF6584"/>
<path d="M256.514 32.3225C256.984 32.3225 257.364 31.9419 257.364 31.4725C257.364 31.0031 256.984 30.6226 256.514 30.6226C256.045 30.6226 255.664 31.0031 255.664 31.4725C255.664 31.9419 256.045 32.3225 256.514 32.3225Z" fill="#FF6584"/>
<path d="M234.644 115.314C234.886 114.617 235.211 113.952 235.613 113.334C237.126 114.125 238.623 114.944 240.083 115.818C243.821 118.062 247.315 120.689 250.509 123.656C249.223 125.403 247.354 126.631 245.24 127.118C243.127 127.604 240.909 127.316 238.989 126.307C237.07 125.297 235.576 123.633 234.778 121.616C233.981 119.599 233.934 117.363 234.644 115.314L234.644 115.314Z" fill="#FF6584"/>
<path d="M126.247 87.6527C126.727 87.6527 127.116 87.2635 127.116 86.7834C127.116 86.3034 126.727 85.9142 126.247 85.9142C125.767 85.9142 125.378 86.3034 125.378 86.7834C125.378 87.2635 125.767 87.6527 126.247 87.6527Z" fill="#F0F0F0"/>
<path d="M232.747 23.3387C233.227 23.3387 233.616 22.9496 233.616 22.4695C233.616 21.9894 233.227 21.6002 232.747 21.6002C232.267 21.6002 231.878 21.9894 231.878 22.4695C231.878 22.9496 232.267 23.3387 232.747 23.3387Z" fill="#F0F0F0"/>
<path d="M224.92 7.85486C225.4 7.85486 225.79 7.46568 225.79 6.9856C225.79 6.50552 225.4 6.11633 224.92 6.11633C224.44 6.11633 224.051 6.50552 224.051 6.9856C224.051 7.46568 224.44 7.85486 224.92 7.85486Z" fill="#F0F0F0"/>
<path d="M286.472 65.5718C286.952 65.5718 287.341 65.1826 287.341 64.7025C287.341 64.2224 286.952 63.8333 286.472 63.8333C285.992 63.8333 285.603 64.2224 285.603 64.7025C285.603 65.1826 285.992 65.5718 286.472 65.5718Z" fill="#F0F0F0"/>
<path d="M240.811 66.8206C241.291 66.8206 241.68 66.4314 241.68 65.9513C241.68 65.4712 241.291 65.082 240.811 65.082C240.331 65.082 239.942 65.4712 239.942 65.9513C239.942 66.4314 240.331 66.8206 240.811 66.8206Z" fill="#F0F0F0"/>
<path d="M216.581 149.732C217.061 149.732 217.45 149.343 217.45 148.863C217.45 148.383 217.061 147.994 216.581 147.994C216.101 147.994 215.712 148.383 215.712 148.863C215.712 149.343 216.101 149.732 216.581 149.732Z" fill="#F0F0F0"/>
<path d="M189.265 68.191C189.745 68.191 190.135 67.8019 190.135 67.3218C190.135 66.8417 189.745 66.4525 189.265 66.4525C188.785 66.4525 188.396 66.8417 188.396 67.3218C188.396 67.8019 188.785 68.191 189.265 68.191Z" fill="#F0F0F0"/>
<path d="M188.045 51.7539C188.525 51.7539 188.914 51.3647 188.914 50.8846C188.914 50.4046 188.525 50.0154 188.045 50.0154C187.565 50.0154 187.176 50.4046 187.176 50.8846C187.176 51.3647 187.565 51.7539 188.045 51.7539Z" fill="#F0F0F0"/>
<path d="M235.697 152.56C237.13 148.412 239.529 144.663 242.695 141.624C243.114 141.224 243.544 140.837 243.985 140.464C248.363 136.761 253.775 134.497 259.486 133.98C261.572 136.97 263.393 140.137 264.926 143.444C265.16 143.95 265.387 144.462 265.607 144.981C265.815 145.478 266.018 145.981 266.209 146.489C268.71 153.076 269.684 160.458 266.489 166.607C263.303 172.74 256.401 176.371 249.509 176.875C245.523 177.113 241.528 176.585 237.74 175.32C235.688 171.681 234.482 167.626 234.211 163.457C234.177 162.932 234.16 162.407 234.155 161.88C234.133 158.708 234.655 155.556 235.697 152.56V152.56Z" fill="#AA6F45"/>
<path d="M224.192 147.052C225.588 143.029 230.812 140.661 238.903 140.381C240.522 140.324 242.302 140.998 243.985 140.464C252.151 137.874 259.559 139.566 265.607 144.981C265.815 145.478 266.017 145.981 266.209 146.489C266.129 146.459 266.047 146.43 265.966 146.402C257.795 143.566 249.683 141.911 242.695 141.624C241.404 141.572 239.864 140.825 238.944 141.608C231.558 147.894 226.562 145.26 225.351 147.455C223.582 150.66 226.72 155.655 232.4 160.466C232.962 160.942 233.547 161.413 234.155 161.88C234.16 162.407 234.177 162.933 234.211 163.457C233.295 162.78 232.427 162.095 231.607 161.402C225.429 156.17 222.797 151.074 224.192 147.052Z" fill="#E4E4E4"/>
<path d="M254.797 175.546C255.277 175.546 255.667 175.157 255.667 174.677C255.667 174.197 255.277 173.808 254.797 173.808C254.317 173.808 253.928 174.197 253.928 174.677C253.928 175.157 254.317 175.546 254.797 175.546Z" fill="#F0F0F0"/>
<path d="M239.418 164.366C239.898 164.366 240.287 163.977 240.287 163.497C240.287 163.017 239.898 162.627 239.418 162.627C238.938 162.627 238.549 163.017 238.549 163.497C238.549 163.977 238.938 164.366 239.418 164.366Z" fill="#F0F0F0"/>
<path d="M251.184 166.728C255.853 166.728 259.638 162.944 259.638 158.275C259.638 153.607 255.853 149.822 251.184 149.822C246.516 149.822 242.731 153.607 242.731 158.275C242.731 162.944 246.516 166.728 251.184 166.728Z" fill="#F0F0F0"/>
<path opacity="0.3" d="M118.373 64.8253C120.349 64.9182 124.436 65.8994 128.865 67.1681C133.291 68.438 138.092 69.9873 142.832 71.5197C151.129 74.2001 159.425 76.8796 167.721 79.5583C168.862 79.926 170.006 80.297 171.152 80.6712C171.591 81.2456 172.028 81.8257 172.457 82.4115C171.449 82.0552 170.437 81.7104 169.428 81.3818C165.116 79.9808 161.375 79.0568 157.191 77.7821C150.752 75.8222 143.959 73.2482 137.37 70.8512C130.782 68.4524 123.224 65.8703 118.373 64.8253Z" fill="#F0F0F0"/>
<path opacity="0.3" d="M265.897 47.808L284.559 78.7877L266.95 47.1919C266.929 47.0916 266.885 46.9976 266.821 46.9177C266.757 46.8378 266.675 46.7744 266.581 46.7327C266.488 46.6909 266.386 46.6721 266.283 46.6777C266.181 46.6833 266.082 46.7133 265.993 46.765C265.905 46.8167 265.83 46.8888 265.775 46.9752C265.72 47.0616 265.687 47.1599 265.677 47.2618C265.668 47.3638 265.683 47.4666 265.721 47.5615C265.759 47.6565 265.82 47.741 265.897 47.808V47.808Z" fill="#F0F0F0"/>
<path d="M256.795 139.235C257.275 139.235 257.665 138.846 257.665 138.366C257.665 137.886 257.275 137.497 256.795 137.497C256.315 137.497 255.926 137.886 255.926 138.366C255.926 138.846 256.315 139.235 256.795 139.235Z" fill="#F0F0F0"/>
<path d="M104.327 136.366C107.405 136.366 109.9 133.871 109.9 130.794C109.9 127.716 107.405 125.221 104.327 125.221C101.249 125.221 98.7544 127.716 98.7544 130.794C98.7544 133.871 101.249 136.366 104.327 136.366Z" fill="#AA6F45"/>
<path d="M101.026 127.734C100.464 127.58 99.9425 127.305 99.4985 126.928C99.0544 126.551 98.6984 126.081 98.4555 125.552C98.2126 125.022 98.0888 124.446 98.0927 123.864C98.0967 123.281 98.2283 122.707 98.4783 122.18L88.3878 112.246L95.5841 110.711L104.063 120.38C104.919 120.858 105.57 121.634 105.892 122.561C106.214 123.487 106.185 124.499 105.811 125.406C105.436 126.312 104.743 127.05 103.861 127.479C102.979 127.908 101.97 127.999 101.026 127.734L101.026 127.734Z" fill="#7A5858"/>
<path d="M52.7793 50.4211L58.4067 54.1302L64.9936 55.6731C64.9936 55.6731 70.2177 93.0097 72.7848 95.2493C75.3519 97.4888 73.1888 97.7011 73.8845 100.79C74.5802 103.879 76.1901 110.199 76.1901 110.199C60.5528 119.892 46.583 121.076 34.6644 111.793C34.4783 111.181 34.5069 110.524 34.7454 109.93C34.9839 109.337 35.418 108.843 35.9758 108.53C37.991 107.278 33.6199 102.374 35.2696 101.392C36.9193 100.41 34.0041 93.0632 34.0041 93.0632L34.5128 77.2859L33.0966 74.866L35.0917 59.332L40.2348 57.0464L41.9957 51.8265L52.7793 50.4211Z" fill="#AA6F45"/>
<path d="M55.2178 51.731L64.4967 54.8209C64.4967 54.8209 74.7611 53.7371 75.177 69.0167C75.5929 84.2964 73.6801 92.4958 73.6801 92.4958C73.6801 92.4958 95.0315 135.433 71.9029 122.751L65.1441 96.1384L58.1783 54.3432L55.2178 51.731Z" fill="#2F2E41"/>
<path d="M64.5233 85.512L69.3363 84.8473C69.3363 84.8473 69.801 92.1037 72.1032 93.2034C74.4055 94.3032 73.6294 94.4842 73.9009 95.6483C74.1723 96.8125 71.8536 100.038 73.6773 100.84C75.501 101.643 91.4403 121.738 91.4403 121.738L100.844 113.031C100.198 111.279 97.0878 112.704 96.8928 110.848C96.6474 108.041 91.7248 100.373 90.6773 99.3899C89.6297 98.4067 90.0438 96.6735 89.5009 94.3452C88.9579 92.0169 89.3348 94.1758 88.4299 90.2953C87.525 86.4148 75.2615 66.6417 74.8352 63.0588C74.4088 59.4758 69.4163 57.3668 69.4163 57.3668L65.5357 58.2717L64.5233 85.512Z" fill="#2F2E41"/>
<path d="M23.8864 214.548L29.551 216.035L37.9842 194.894L29.6238 192.698L23.8864 214.548Z" fill="#7A5858"/>
<path d="M22.1349 220.405L39.5544 224.979L39.6123 224.759C40.0844 222.961 39.823 221.049 38.8854 219.443C37.9478 217.838 36.411 216.67 34.6129 216.198L34.6124 216.198L32.0646 212.948L25.4938 213.803L23.9732 213.404L22.1349 220.405Z" fill="#2F2E41"/>
<path d="M52.9256 218.786L58.7818 218.785L61.5681 196.195L52.9242 196.195L52.9256 218.786Z" fill="#7A5858"/>
<path d="M52.719 224.895L70.7292 224.895V224.667C70.729 222.808 69.9904 221.025 68.6758 219.71C67.3612 218.396 65.5783 217.657 63.7191 217.657H63.7187L60.4289 215.161L54.2909 217.657L52.7188 217.657L52.719 224.895Z" fill="#2F2E41"/>
<path d="M38.2769 110.682C36.8621 112.45 37.5695 118.463 37.5695 118.463C37.5695 118.463 35.0937 137.916 36.1547 139.685C37.2158 141.453 35.4474 142.868 34.3863 145.344C33.3252 147.82 32.2641 153.832 32.2641 153.832C26.2514 158.784 26.6051 181.42 26.6051 181.42L24.4829 201.581C25.1903 203.703 35.0937 204.057 36.5085 203.703C37.9232 203.349 51.7172 153.479 51.7172 153.479C51.7172 153.479 51.0098 201.581 51.0098 203.703C51.0098 205.825 60.5595 204.764 62.6817 204.764C64.8039 204.764 78.2442 118.109 78.2442 118.109V113.158L76.4757 110.682C76.4757 110.682 39.6917 108.913 38.2769 110.682Z" fill="#2F2E41"/>
<path d="M41.6343 52.7758L32.9486 58.3097L28.7474 61.8314L34.3201 97.3573C34.3201 97.3573 25.8535 129.65 39.1962 127.659C52.539 125.668 51.7909 96.6473 51.7909 96.6473L41.6343 52.7758Z" fill="#2F2E41"/>
<path d="M53.2564 103.242C52.7552 103.539 52.195 103.722 51.6153 103.779C51.0355 103.836 50.4504 103.765 49.901 103.571C49.3516 103.378 48.8514 103.066 48.4355 102.658C48.0197 102.25 47.6984 101.756 47.4942 101.21L33.3383 101.552L37.2397 95.3134L50.0842 95.9452C51.0235 95.6629 52.0337 95.7349 52.9234 96.1477C53.813 96.5604 54.5204 97.2852 54.9114 98.1846C55.3025 99.0841 55.35 100.096 55.0449 101.028C54.7399 101.96 54.1035 102.748 53.2564 103.242V103.242Z" fill="#7A5858"/>
<path d="M46.194 47.9718C52.3722 47.9718 57.3807 42.9633 57.3807 36.785C57.3807 30.6068 52.3722 25.5983 46.194 25.5983C40.0157 25.5983 35.0072 30.6068 35.0072 36.785C35.0072 42.9633 40.0157 47.9718 46.194 47.9718Z" fill="#7A5858"/>
<path d="M33.505 29.4346C34.7612 27.4912 37.1184 26.1961 39.4036 26.56C39.6163 25.1016 40.225 23.7296 41.1635 22.5932C42.102 21.4569 43.3343 20.5998 44.7261 20.1152C46.118 19.6307 47.6161 19.5373 49.0574 19.8453C50.4986 20.1532 51.8278 20.8507 52.9001 21.8617C53.2528 21.6135 53.6635 21.4604 54.0927 21.4175C54.5218 21.3745 54.9548 21.4431 55.3496 21.6166C56.1361 21.9742 56.8203 22.5234 57.3396 23.214C58.6509 24.8492 59.4942 26.8094 59.7799 28.8859C60.0655 30.9624 59.7827 33.0775 58.9616 35.006C59.2409 33.9908 58.2234 33.0356 57.1953 32.8078C56.1674 32.5799 55.089 32.7955 54.0465 32.6471C52.7103 32.457 51.5093 31.6819 50.171 31.5074C49.0463 31.3608 47.9153 31.6492 46.8185 31.9383C45.7217 32.2273 44.5936 32.522 43.4673 32.3883C42.3409 32.2545 40.8901 36.523 40.9095 39.5295C40.9132 40.0993 40.7959 40.8308 40.2391 40.9516C39.5534 41.1005 39.156 40.1541 38.5034 39.8963C38.2026 39.8101 37.8801 39.844 37.6038 39.9909C37.3275 40.1378 37.1191 40.3862 37.0224 40.6838C36.9401 40.9863 36.9313 41.3041 36.9967 41.6108C37.0621 41.9174 37.1997 42.204 37.3982 42.4466C37.7994 42.9277 38.2756 43.3408 38.8086 43.6701L38.5398 43.8936C38.0926 44.4843 37.1652 44.5099 36.5207 44.1444C35.9045 43.7271 35.4054 43.1588 35.0711 42.4939C33.8788 40.5108 32.833 38.3979 32.4122 36.1225C31.9915 33.8472 32.249 31.3779 33.505 29.4346Z" fill="#2F2E41"/>
<path d="M37.4548 62.8763L32.4279 58.5684C32.4279 58.5684 26.5584 60.3998 25.5632 64.2503C17.7296 74.2667 13.5108 85.9649 12.3777 99.0988C22.6049 102.961 35.1279 104.332 48.6002 104.672L45.8138 94.2227L26.6577 90.7398L37.4548 62.8763Z" fill="#2F2E41"/>
<path d="M19.6435 219.971L16.9581 215.655L16.4218 218.121C16.3277 218.553 16.2337 218.992 16.1466 219.427C15.3839 218.776 14.5723 218.173 13.7783 217.595C11.3402 215.826 8.90331 214.054 6.46753 212.28L7.23027 216.704C7.7005 219.427 8.19165 222.207 9.35489 224.697C9.4838 224.979 9.62308 225.258 9.77291 225.529H21.1064C21.1975 225.277 21.2606 225.015 21.2945 224.749C21.2973 224.732 21.2984 224.714 21.2979 224.697C21.4756 223.008 20.5421 221.416 19.6435 219.971Z" fill="#F2F2F2"/>
<path d="M119.802 215.013L124.882 206.849L125.897 211.514C126.075 212.331 126.253 213.161 126.418 213.985C127.861 212.753 129.396 211.613 130.898 210.519C135.511 207.172 140.121 203.82 144.729 200.464L143.286 208.832C142.397 213.985 141.467 219.243 139.267 223.954C139.023 224.488 138.759 225.015 138.476 225.529H117.035C116.862 225.052 116.743 224.557 116.679 224.053C116.673 224.021 116.671 223.987 116.672 223.954C116.336 220.759 118.102 217.747 119.802 215.013Z" fill="#F2F2F2"/>
<path d="M115.817 225.703H92.4893C91.4263 225.702 90.4072 225.279 89.6555 224.528C88.9039 223.776 88.4811 222.757 88.4799 221.694V139.853C88.4811 138.79 88.9039 137.771 89.6555 137.019C90.4072 136.268 91.4263 135.845 92.4893 135.844H115.817C116.88 135.845 117.899 136.268 118.651 137.019C119.402 137.771 119.825 138.79 119.826 139.853V221.694C119.825 222.757 119.402 223.776 118.651 224.528C117.899 225.279 116.88 225.702 115.817 225.703V225.703Z" fill="#F2F2F2"/>
<path d="M110.309 137.934H98.3458C97.9463 137.933 97.5632 137.774 97.2807 137.492C96.9982 137.209 96.8393 136.826 96.8389 136.426V132.127C96.8393 131.727 96.9982 131.344 97.2807 131.061C97.5632 130.779 97.9463 130.62 98.3458 130.619H110.309C110.708 130.62 111.091 130.779 111.374 131.061C111.656 131.344 111.815 131.727 111.815 132.127V136.426C111.815 136.826 111.656 137.209 111.374 137.492C111.091 137.774 110.708 137.933 110.309 137.934Z" fill="#3F3D56"/>
<path d="M144.521 225.824L0.414729 225.931C0.30495 225.93 0.199778 225.887 0.122265 225.809C0.0447512 225.731 0.0012207 225.626 0.0012207 225.516C0.0012207 225.406 0.0447512 225.301 0.122265 225.223C0.199778 225.145 0.30495 225.102 0.414729 225.101L144.521 224.994C144.631 224.995 144.736 225.038 144.814 225.116C144.891 225.194 144.935 225.299 144.935 225.409C144.935 225.519 144.891 225.624 144.814 225.702C144.736 225.78 144.631 225.823 144.521 225.824V225.824Z" fill="#CACACA"/>
</g>
<defs>
<clipPath id="clip0_1_247">
<rect width="300" height="225.931" fill="white"/>
</clipPath>
</defs>
</svg>
